<?xml version="1.0" encoding="utf-8"?>
<!-- Generator: Adobe Illustrator 16.0.3, SVG Export Plug-In . SVG Version: 6.00 Build 0)  -->
<!DOCTYPE svg PUBLIC "-//W3C//DTD SVG 1.1//EN" "http://www.w3.org/Graphics/SVG/1.1/DTD/svg11.dtd">
<svg version="1.1" id="Layer_1" xmlns="http://www.w3.org/2000/svg" xmlns:xlink="http://www.w3.org/1999/xlink" x="0px" y="0px"
	 width="240px" height="140px" viewBox="0 0 240 140" enable-background="new 0 0 240 140" xml:space="preserve">
<path fill="none" stroke="#F21400" stroke-width="5" stroke-miterlimit="10" d="M3.6,138.31c0-0.839,0.009-19.391,0.026-20.225
	C4.961,54.955,56.553,4.19,120.003,4.19c64.287,0,116.402,52.665,116.402,116.953"/>
<path fill="none" stroke="#F8AD00" stroke-width="5" stroke-miterlimit="10" d="M8.6,136.143c0-0.811,0.008-17.105,0.025-17.912
	C9.91,57.238,59.573,8.19,120.653,8.19c61.884,0,111.984,50.84,111.984,112.953"/>
<path fill="none" stroke="#E5F400" stroke-width="5" stroke-miterlimit="10" d="M13.6,134.31c0-0.775,0.008-15.112,0.024-15.883
	C14.853,60.097,62.348,13.19,120.761,13.19c59.183,0,107.082,48.552,107.082,107.953"/>
<path fill="none" stroke="#00F616" stroke-width="5" stroke-miterlimit="10" d="M18.61,132.143c0-0.74-0.003-12.731,0.012-13.467
	C19.797,62.979,65.147,18.19,120.922,18.19c56.512,0,102.323,46.234,102.323,102.953"/>
<path fill="none" stroke="#00E8F2" stroke-width="5" stroke-miterlimit="10" d="M23.344,130.267c0-0.71-0.003-10.961,0.013-11.667
	c1.122-53.438,44.47-96.41,97.782-96.41c54.016,0,97.8,44.535,97.8,98.953"/>
<path fill="none" stroke="#7200F6" stroke-width="5" stroke-miterlimit="10" d="M28.229,128.81c0-0.677,0.004-9.96,0.019-10.633
	c1.067-50.987,42.323-91.987,93.06-91.987c51.406,0,93.08,42.949,93.08,94.87"/>
<path fill="none" stroke="#D100F4" stroke-width="5" stroke-miterlimit="10" d="M33.077,126.81c0-0.645,0.002-8.398,0.016-9.039
	c1.017-48.544,40.215-87.581,88.424-87.581c48.846,0,88.445,41.436,88.445,90.87"/>
</svg>
