<?xml version="1.0" encoding="utf-8"?>
<!-- Generator: Adobe Illustrator 16.0.3, SVG Export Plug-In . SVG Version: 6.00 Build 0)  -->
<!DOCTYPE svg PUBLIC "-//W3C//DTD SVG 1.1//EN" "http://www.w3.org/Graphics/SVG/1.1/DTD/svg11.dtd">
<svg version="1.1" id="Layer_1" xmlns="http://www.w3.org/2000/svg" xmlns:xlink="http://www.w3.org/1999/xlink" x="0px" y="0px"
	 width="240px" height="140px" viewBox="0 0 240 140" enable-background="new 0 0 240 140" xml:space="preserve">
<path fill="none" stroke="#F21400" stroke-width="5" stroke-miterlimit="10" d="M3.6,138.31c0-0.839,0.009-19.391,0.026-20.225
	C4.961,54.955,56.553,4.19,120.003,4.19c64.287,0,116.402,52.665,116.402,116.953"/>
<path fill="none" stroke="#F8AD00" stroke-width="5" stroke-miterlimit="10" d="M8.6,136.143c0-0.811,0.008-17.105,0.025-17.912
	C9.91,57.238,59.573,8.19,120.653,8.19c61.884,0,111.984,50.84,111.984,112.953"/>
<path fill="none" stroke="#E5F400" stroke-width="5" stroke-miterlimit="10" d="M13.6,134.31c0-0.775,0.008-15.112,0.024-15.883
	C14.853,60.097,62.348,13.19,120.761,13.19c59.183,0,107.082,48.552,107.082,107.953"/>
<path fill="none" stroke="#00F616" stroke-width="5" stroke-miterlimit="10" d="M18.494,132.143c0-0.74-0.002-12.731,0.012-13.467
	C19.682,62.979,65.058,18.19,120.864,18.19c56.543,0,102.381,46.234,102.381,102.953"/>
<path fill="none" stroke="#00E8F2" stroke-width="5" stroke-miterlimit="10" d="M23.23,130.267c0-0.71-0.003-10.961,0.013-11.667
	c1.122-53.438,44.495-96.41,97.837-96.41c54.046,0,97.854,44.535,97.854,98.953"/>
<path fill="none" stroke="#7200F6" stroke-width="5" stroke-miterlimit="10" d="M28.119,128.81c0-0.677,0.004-9.96,0.018-10.633
	C29.206,67.19,70.484,26.19,121.249,26.19c51.437,0,93.133,42.949,93.133,94.87"/>
<path fill="none" stroke="#D100F4" stroke-width="5" stroke-miterlimit="10" d="M32.969,126.81c0-0.645,0.002-8.398,0.017-9.039
	c1.017-48.544,40.238-87.581,88.474-87.581c48.873,0,88.495,41.436,88.495,90.87"/>
</svg>
